<?xml version="1.0" encoding="iso-8859-1"?>
<!-- Uploaded to: SVG Repo, www.svgrepo.com, Generator: SVG Repo Mixer Tools -->
<svg height="800px" width="800px" version="1.1" id="Layer_1" xmlns="http://www.w3.org/2000/svg" xmlns:xlink="http://www.w3.org/1999/xlink" 
	 viewBox="0 0 511.999 511.999" xml:space="preserve">
<g>
	<path style="fill:#ABB8B9;" d="M343.915,256c15.968-21.511,40.538-35.525,65.458-42.343c14.828-4.054,29.775-5.564,43.113-4.59
		c8.236,30.749,8.236,63.12,0,93.867C416.722,305.544,369.379,290.303,343.915,256L343.915,256z M174.642,162.819
		c-10.923-10.811-19.704-23.004-25.529-35.041c22.506-22.506,50.543-38.693,81.289-46.933
		c20.143,29.668,30.616,78.289,13.636,117.495C217.428,195.267,193.005,180.994,174.642,162.819L174.642,162.819z M306.686,120.476
		c3.896-14.865,10.069-28.567,17.578-39.63c30.746,8.241,58.783,24.427,81.291,46.933c-5.828,12.037-14.609,24.229-25.533,35.041
		c-18.364,18.175-42.79,32.445-69.401,35.518C299.979,173.754,300.127,145.47,306.686,120.476L306.686,120.476z M102.178,209.067
		c13.336-0.974,28.29,0.537,43.111,4.592c24.922,6.819,49.494,20.833,65.462,42.341c-15.968,21.513-40.54,35.524-65.462,42.343
		c-14.822,4.054-29.775,5.564-43.111,4.589C93.94,272.187,93.94,239.814,102.178,209.067L102.178,209.067z M277.331,234.667
		c11.784,0,21.333,9.551,21.333,21.332c0,11.781-9.548,21.333-21.333,21.333c-11.778,0-21.333-9.551-21.333-21.333
		C255.999,244.218,265.554,234.667,277.331,234.667L277.331,234.667z M501.333,256c0-123.71-100.29-223.997-224-223.997
		C153.624,32.003,53.335,132.29,53.335,256c0,69.168,31.355,131.014,80.62,172.103c38.848,32.402,88.839,51.894,143.378,51.894
		C401.042,479.997,501.333,379.71,501.333,256L501.333,256z M149.113,384.221c15.622-32.276,52.491-65.657,94.929-70.559
		c10.646,24.583,10.495,52.869,3.937,77.861c-3.898,14.866-10.066,28.567-17.579,39.63
		C199.656,422.913,171.619,406.727,149.113,384.221L149.113,384.221z M306.686,391.523c-6.558-24.993-6.707-53.278,3.939-77.863
		c26.61,3.072,51.033,17.345,69.397,35.52c10.923,10.811,19.706,23.003,25.533,35.041c-22.508,22.506-50.545,38.693-81.291,46.932
		C316.755,420.091,310.582,406.389,306.686,391.523z"/>
	<path style="fill:#ED8C18;" d="M298.664,256c0-11.781-9.548-21.332-21.333-21.332c-11.778,0-21.333,9.551-21.333,21.332
		s9.555,21.333,21.333,21.333C289.116,277.331,298.664,267.781,298.664,256z"/>
	<path style="fill:#FCD051;" d="M145.29,298.343c-8.827-27.539-8.827-57.148,0-84.685c-14.822-4.056-29.775-5.566-43.111-4.592
		c-8.238,30.749-8.238,63.12,0,93.867C115.515,303.907,130.467,302.397,145.29,298.343z"/>
	<path style="fill:#657694;" d="M145.29,213.658c-8.827,27.537-8.827,57.145,0,84.685c24.922-6.819,49.494-20.831,65.462-42.343
		C194.784,234.491,170.212,220.476,145.29,213.658z"/>
	<path style="fill:#FCD051;" d="M247.98,391.523c-28.26-6.122-53.905-20.926-73.338-42.341
		c-10.923,10.809-19.704,23.001-25.529,35.039c22.506,22.506,50.543,38.693,81.289,46.932
		C237.914,420.091,244.077,406.389,247.98,391.523z"/>
	<path style="fill:#657694;" d="M174.642,349.182c19.433,21.415,45.078,36.219,73.338,42.341
		c6.556-24.993,6.709-53.278-3.937-77.861C217.428,316.735,193.009,331.008,174.642,349.182z"/>
	<path style="fill:#FCD051;" d="M380.022,349.179c-19.431,21.417-45.074,36.221-73.336,42.343
		c3.9,14.866,10.069,28.567,17.578,39.63c30.746-8.241,58.783-24.426,81.291-46.932
		C399.728,372.183,390.945,359.992,380.022,349.179z"/>
	<path style="fill:#657694;" d="M306.686,391.523c28.262-6.122,53.905-20.926,73.336-42.343
		c-18.364-18.173-42.786-32.447-69.397-35.52C299.979,338.244,300.127,366.53,306.686,391.523z"/>
	<path style="fill:#FCD051;" d="M409.374,213.656c8.834,27.539,8.834,57.147,0,84.684c14.828,4.056,29.775,5.566,43.113,4.592
		c8.236-30.747,8.236-63.118,0-93.867C439.149,208.093,424.202,209.603,409.374,213.656z"/>
	<path style="fill:#657694;" d="M409.374,298.341c8.834-27.537,8.834-57.145,0-84.684c-24.92,6.819-49.491,20.833-65.458,42.343
		C359.883,277.51,384.453,291.524,409.374,298.341z"/>
	<path style="fill:#FCD051;" d="M306.686,120.476c28.262,6.122,53.905,20.926,73.336,42.343
		c10.923-10.811,19.706-23.004,25.533-35.041c-22.508-22.506-50.545-38.693-81.291-46.933
		C316.755,91.909,310.586,105.611,306.686,120.476z"/>
	<path style="fill:#657694;" d="M380.022,162.819c-19.431-21.417-45.074-36.221-73.336-42.343
		c-6.558,24.994-6.707,53.278,3.935,77.861C337.236,195.265,361.658,180.994,380.022,162.819z"/>
	<path style="fill:#FCD051;" d="M174.642,162.819c19.433-21.417,45.074-36.221,73.338-42.343
		c-3.902-14.865-10.066-28.567-17.579-39.63c-30.746,8.241-58.783,24.427-81.289,46.933
		C154.938,139.816,163.717,152.008,174.642,162.819z"/>
	<path style="fill:#657694;" d="M247.98,120.476c-28.264,6.122-53.905,20.926-73.338,42.343
		c18.364,18.175,42.786,32.447,69.397,35.52C254.685,173.757,254.536,145.472,247.98,120.476z"/>
</g>
<g>
	<path style="fill:#000003;" d="M277.331,21.336C147.935,21.336,42.666,126.606,42.666,256c0,55.569,19.428,106.678,51.831,146.921
		c-32.313-5.926-64.748-0.482-89.775,16.326c-4.892,3.285-6.195,9.912-2.909,14.802c3.283,4.891,9.911,6.193,14.803,2.908
		c30.131-20.235,73.992-20.095,111.855,0.315c40.534,33.345,92.4,53.391,148.86,53.391c129.396,0,234.667-105.27,234.667-234.664
		S406.728,21.336,277.331,21.336z M277.331,469.329c-117.63,0-213.33-95.699-213.33-213.329s95.7-213.329,213.33-213.329
		c117.632,0,213.333,95.699,213.333,213.329S394.965,469.329,277.331,469.329z"/>
	<path style="fill:#000003;" d="M148.546,308.502c0.052-0.017,0.102-0.041,0.155-0.059c25.485-7.02,52.27-21.366,70.617-46.085
		c2.802-3.775,2.802-8.94,0-12.716c-18.353-24.726-45.149-39.072-70.638-46.091c-0.046-0.015-0.087-0.036-0.133-0.05
		c-0.371-0.118-0.744-0.213-1.115-0.289c-13.28-3.537-26.16-5.097-37.257-5.097c-2.964,0-5.917,0.106-8.774,0.314
		c-4.529,0.331-8.353,3.493-9.528,7.878c-8.711,32.511-8.711,66.878,0,99.388c1.176,4.385,4.999,7.547,9.528,7.878
		c2.857,0.209,5.808,0.315,8.776,0.315c11.105,0,24.002-1.562,37.294-5.108C147.829,308.703,148.188,308.616,148.546,308.502z
		 M196.976,256c-12.051,13.364-27.95,22.836-44.361,28.784c-4.407-19-4.407-38.571,0.002-57.569
		C169.027,233.163,184.925,242.634,196.976,256z M110.627,219.449c6.734,0.03,13.97,0.732,21.387,2.13
		c-5.404,22.704-5.404,46.133,0,68.839c-7.419,1.4-14.655,2.101-21.387,2.131C105.357,268.495,105.357,243.506,110.627,219.449z"/>
	<path style="fill:#000003;" d="M309.331,256c0-17.645-14.355-31.999-32-31.999s-32,14.354-32,31.999
		c0,17.646,14.355,32.002,32,32.002C294.976,288.002,309.331,273.646,309.331,256z M277.331,266.666
		c-5.88,0-10.665-4.785-10.665-10.667c0-5.881,4.785-10.664,10.665-10.664s10.665,4.784,10.665,10.664
		C287.997,261.881,283.211,266.666,277.331,266.666z"/>
	<path style="fill:#000003;" d="M166.322,169.478c0.35,0.434,0.725,0.853,1.15,1.24c0.231,0.21,0.47,0.404,0.715,0.59
		c19.42,18.902,45.338,34.245,74.628,37.628c0.411,0.048,0.821,0.07,1.227,0.07c4.21,0,8.082-2.494,9.784-6.428
		c19.299-44.559,5.961-97.444-14.599-127.726c-2.553-3.757-7.2-5.487-11.588-4.312c-32.511,8.713-62.273,25.897-86.069,49.694
		c-3.211,3.211-4.038,8.102-2.061,12.189C145.46,144.722,154.645,157.722,166.322,169.478z M225.625,93.358
		c14.134,24.846,21.604,61.761,11.522,93.043c-17.334-3.729-33.53-12.705-47.043-24.05c2.151-2.003,4.357-3.942,6.628-5.783
		c4.575-3.711,5.275-10.428,1.565-15.004c-3.711-4.576-10.427-5.276-15.003-1.567c-2.879,2.334-5.679,4.792-8.39,7.348
		c-4.881-5.665-9.12-11.561-12.567-17.445C180.529,113.311,202.158,100.823,225.625,93.358z"/>
	<path style="fill:#000003;" d="M253.832,309.423c-1.869-4.315-6.348-6.901-11.013-6.358
		c-48.235,5.572-87.364,43.566-103.307,76.509c-1.979,4.088-1.152,8.979,2.059,12.19c23.794,23.797,53.556,40.98,86.069,49.694
		c0.916,0.245,1.844,0.364,2.763,0.364c3.475,0,6.807-1.704,8.823-4.676c7.663-11.283,14.318-25.708,18.659-41.669
		c0.214-0.542,0.392-1.107,0.521-1.696c0.063-0.29,0.105-0.578,0.142-0.867C265.217,366.633,265.554,336.496,253.832,309.423z
		 M225.627,418.642c-23.466-7.465-45.096-19.955-63.29-36.54c14.449-24.663,42.682-49.588,74.811-56.5
		c5.44,16.877,5.763,35.39,2.694,52.765c-2.804-0.86-5.588-1.802-8.322-2.848c-5.502-2.106-11.671,0.646-13.776,6.149
		c-2.107,5.502,0.645,11.67,6.149,13.776c3.465,1.327,6.992,2.523,10.556,3.592C231.983,406.096,228.998,412.715,225.627,418.642z"
		/>
	<path style="fill:#000003;" d="M388.337,342.517c-0.348-0.433-0.723-0.852-1.148-1.237c-0.221-0.201-0.452-0.382-0.686-0.561
		c-19.424-18.914-45.353-34.271-74.652-37.656c-4.671-0.539-9.144,2.043-11.013,6.357c-11.726,27.073-11.391,57.211-4.721,83.494
		c0.039,0.289,0.081,0.578,0.144,0.868c0.127,0.59,0.304,1.155,0.521,1.697c4.339,15.961,10.997,30.385,18.657,41.669
		c2.017,2.972,5.349,4.676,8.825,4.676c0.916,0,1.844-0.118,2.761-0.364c32.511-8.713,62.273-25.897,86.073-49.694
		c3.213-3.211,4.038-8.103,2.061-12.191C409.205,367.275,400.019,354.274,388.337,342.517z M317.518,325.599
		c17.339,3.729,33.536,12.709,47.051,24.059c-14.22,13.281-31.132,23.045-49.745,28.722C311.753,361,312.078,342.48,317.518,325.599
		z M329.039,418.642c-3.371-5.924-6.355-12.537-8.82-19.593c22.341-6.669,42.609-18.371,59.552-34.383
		c4.877,5.663,9.115,11.555,12.559,17.436C374.136,398.687,352.503,411.177,329.039,418.642z"/>
	<path style="fill:#000003;" d="M462.79,206.306c-1.176-4.386-4.999-7.548-9.528-7.879c-2.857-0.209-5.808-0.314-8.774-0.314
		c-11.087,0-23.956,1.557-37.222,5.089c-0.385,0.078-0.769,0.174-1.15,0.295c-0.059,0.018-0.11,0.044-0.166,0.063
		c-25.479,7.022-52.255,21.367-70.601,46.081c-2.802,3.775-2.802,8.94,0,12.716c28.231,38.032,76.436,51.528,109.138,51.528
		c2.967,0,5.919-0.106,8.774-0.315c4.529-0.331,8.353-3.491,9.528-7.878C471.499,273.184,471.499,238.817,462.79,206.306z
		 M444.037,292.55c-27.654-0.123-63.759-11.496-86.345-36.551c12.047-13.361,27.941-22.83,44.346-28.78
		c0.665,2.882,1.244,5.782,1.705,8.686c0.833,5.254,5.369,8.998,10.523,8.998c0.555,0,1.119-0.044,1.683-0.133
		c5.819-0.923,9.788-6.388,8.866-12.207c-0.583-3.674-1.312-7.342-2.173-10.982c7.421-1.401,14.659-2.104,21.396-2.133
		C449.306,243.506,449.306,268.494,444.037,292.55z"/>
	<path style="fill:#000003;" d="M300.834,202.577c1.703,3.935,5.574,6.429,9.784,6.429c0.406,0,0.817-0.023,1.227-0.07
		c29.294-3.382,55.214-18.728,74.636-37.631c0.242-0.183,0.479-0.376,0.708-0.583c0.425-0.385,0.798-0.803,1.146-1.236
		c11.684-11.757,20.87-24.758,26.823-37.057c1.978-4.088,1.152-8.98-2.061-12.191c-23.8-23.798-53.562-40.981-86.073-49.694
		c-4.388-1.176-9.036,0.556-11.586,4.312c-7.675,11.304-14.34,25.759-18.683,41.754c-0.201,0.517-0.375,1.051-0.496,1.611
		c-0.065,0.291-0.107,0.581-0.144,0.872C289.447,145.371,289.111,175.506,300.834,202.577z M314.824,133.62
		c18.613,5.677,35.526,15.441,49.745,28.722c-13.516,11.349-29.714,20.328-47.053,24.057
		C312.076,169.517,311.753,150.999,314.824,133.62z M329.039,93.358c23.464,7.465,45.094,19.953,63.292,36.541
		c-3.443,5.881-7.682,11.773-12.559,17.436c-16.943-16.013-37.211-27.715-59.552-34.384
		C322.685,105.895,325.671,99.28,329.039,93.358z"/>
	<path style="fill:#000003;" d="M214.698,142.96c1.602,0,3.229-0.363,4.761-1.129c0.004-0.002,0.166-0.083,0.171-0.084
		c5.277-2.618,7.434-9.019,4.815-14.296c-2.617-5.278-9.017-7.435-14.296-4.816l-0.173,0.087l4.715,9.57l-4.772-9.541
		c-5.269,2.635-7.404,9.043-4.772,14.312C207.016,140.8,210.783,142.96,214.698,142.96z"/>
	<path style="fill:#000003;" d="M207.521,363.288c-0.125-0.085-0.256-0.171-0.398-0.262c-4.949-3.198-11.551-1.781-14.751,3.166
		c-3.198,4.948-1.781,11.552,3.167,14.75c0.002,0.002,0.039,0.027,0.07,0.046c1.812,1.208,3.865,1.786,5.898,1.786
		c3.408,0,6.761-1.632,8.825-4.664C213.65,373.24,212.39,366.604,207.521,363.288z"/>
	<path style="fill:#000003;" d="M416.41,252.957c-5.898-0.347-10.928,4.147-11.269,10.029l-0.015,0.259
		c-0.323,5.883,4.186,10.912,10.068,11.235c0.198,0.011,0.396,0.016,0.594,0.016c5.623,0,10.33-4.4,10.641-10.084l0.011-0.188
		C426.781,258.345,422.289,253.299,416.41,252.957z"/>
</g>
</svg>